<svg width="165" height="165" viewBox="0 0 165 165" fill="none" xmlns="http://www.w3.org/2000/svg">
<path d="M45.0368 127.534C68.1831 146.791 82.504 82.4996 82.504 82.4996C82.504 82.4996 21.8904 108.277 45.0368 127.534Z" fill="#D3E9FE"/>
<path d="M119.966 37.4678C143.113 56.7248 82.4992 82.5024 82.4992 82.5024C82.4992 82.5024 96.8201 18.2108 119.966 37.4678Z" fill="#D3E9FE"/>
<path d="M103.663 138.205C131.541 128.235 82.5057 82.4994 82.5057 82.4994C82.5057 82.4994 75.7851 148.174 103.663 138.205Z" fill="#D3E9FE"/>
<path d="M61.3429 26.7946C89.221 16.8251 82.5004 82.5 82.5004 82.5C82.5004 82.5 33.4648 36.7642 61.3429 26.7946Z" fill="#D3E9FE"/>
<path d="M141.123 93.1722C136.391 122.399 82.4983 82.5014 82.4983 82.5014C82.4983 82.5014 145.855 63.9456 141.123 93.1722Z" fill="#D3E9FE"/>
<path d="M23.8809 71.8284C19.1491 101.055 82.5057 82.4992 82.5057 82.4992C82.5057 82.4992 28.6126 42.6019 23.8809 71.8284Z" fill="#D3E9FE"/>
</svg>
