 <svg
            width="57"
            height="64"
            viewBox="0 0 57 64"
            fill="none"
            xmlns="http://www.w3.org/2000/svg"
          >
            <path
              d="M25.5243 21.1357C22.1598 20.3069 18.254 19.0317 16.6039 15.7311C15.0295 12.3669 16.18 8.27872 18.3524 5.42078C22.7691 0.214965 31.0082 -0.797693 37.3929 0.526264C41.3857 1.48641 45.2157 3.15167 48.5046 5.62331C54.4578 9.99274 57.7315 18.1503 55.4229 25.2951C54.6735 27.6318 52.38 32.5638 49.4734 32.3425C48.9663 32.2375 48.5727 31.9299 48.2737 31.5924C48.2321 31.5436 48.2359 31.4724 48.2851 31.4311C48.3267 31.3936 48.391 31.3936 48.4327 31.4311C49.9654 32.7288 51.3922 30.891 52.0848 29.5783C56.4674 22.1896 53.6479 12.5169 47.0853 7.37858C44.1863 4.97071 40.6288 3.25294 36.9804 2.25153C29.6836 0.436249 18.9731 2.12776 17.0013 10.5628C15.268 16.5525 20.4907 19.6092 25.5697 20.9144C25.7211 20.937 25.6643 21.1732 25.5205 21.1357H25.5243Z"
              fill="#1D6362"
            />
            <path
              d="M39.4931 36.9524C40.9388 36.8812 42.464 36.6561 43.7659 36.0973C44.2314 35.9173 44.5418 35.5685 44.9202 35.3022C45.5977 34.8183 46.0026 34.5145 46.7974 33.6857C46.8504 33.6294 46.9488 33.6444 46.9791 33.7157C47.3802 34.5408 47.2213 35.5835 46.6271 36.3711C46.0254 37.1925 45.0149 37.38 44.2087 37.5413C42.5851 37.8563 40.988 37.6275 39.459 37.1362C39.3606 37.1024 39.3833 36.9487 39.4893 36.9487L39.4931 36.9524Z"
              fill="#1D6362"
            />
            <path
              d="M22.8289 22.4336C23.4912 23.5475 24.4336 24.4964 25.516 25.1753C26.7157 25.7566 27.8246 26.2179 28.8313 27.1518L28.8086 27.3019C27.3174 27.8907 25.7544 27.2606 24.759 26.1242C23.7107 25.149 22.9689 23.8626 22.6851 22.4824L22.8289 22.4373V22.4336Z"
              fill="#1D6362"
            />
            <path
              d="M34.2853 23.8377C29.9519 28.8784 35.2277 34.073 36.4085 39.2451C36.927 41.1466 37.2108 43.1082 37.1881 45.0547C36.8286 41.1654 35.2807 37.516 33.2105 34.3205C30.7316 31.0238 29.6681 25.9417 32.4081 22.3862C33.3846 21.0697 35.3374 22.5775 34.2815 23.8377H34.2853Z"
              fill="#1D6362"
            />
            <path
              d="M14.5065 7.2393C12.7542 8.8258 10.7748 10.3898 9.55238 12.4001C9.06416 14.0766 9.45398 15.9819 9.65078 17.6997L9.70755 18.0747L9.38207 18.3598C6.88043 20.4826 4.17064 22.7142 1.24512 24.0982C3.24719 21.4953 5.82452 19.2637 8.4132 17.2084L8.1445 17.8685C8.08394 16.747 8.06502 15.6556 8.11422 14.5342C8.18613 13.6678 8.16342 12.7002 8.64407 11.905C9.44641 10.7086 10.6045 9.82346 11.702 8.97958C12.5839 8.31947 13.4846 7.69688 14.4156 7.11929C14.4913 7.07428 14.5784 7.1793 14.5065 7.24306V7.2393Z"
              fill="#1D6362"
            />
            <path
              d="M0.696914 27.1344C3.13043 28.5072 3.47862 30.9375 1.8323 33.0754C1.68092 33.3004 1.52575 33.4954 1.41978 33.6642C1.30624 33.8142 1.27596 34.0093 1.37815 33.7805C1.43492 33.6305 1.3895 33.4054 1.32516 33.2929C2.2751 34.5081 2.89957 36.0496 2.38107 37.6886L2.34323 37.7861C2.34323 37.7936 2.3735 37.7336 2.38486 37.7111C2.46055 37.5348 2.47569 37.321 2.45677 37.1523C2.46434 37.1598 2.47947 37.1748 2.48704 37.186C2.73683 37.6623 3.91006 38.9638 3.64136 40.8953C3.60729 41.1241 3.56188 41.3492 3.4824 41.5592C3.02446 42.6506 2.51732 44.4434 2.57031 45.231C2.52489 45.1335 2.40757 45.0135 2.29781 44.9722C2.24861 44.9197 2.18427 44.9385 2.2751 44.9272C2.38486 44.9422 2.78224 44.9272 2.91092 44.9272C7.21783 45.0397 11.4566 45.4035 15.7105 45.9624C19.094 46.2062 22.4585 47.5339 25.8685 46.9375C26.3302 46.84 26.8373 46.72 27.0417 46.3224C27.072 46.2699 27.1401 46.2512 27.1931 46.2812C27.2385 46.3074 27.2574 46.3599 27.2423 46.4087C27.0606 46.99 26.5157 47.2151 26.0691 47.4176C24.6536 47.9802 23.1057 48.1527 21.5956 48.0627C15.7862 47.7439 9.40913 47.3764 3.63 47.1963C2.63464 47.1138 1.32138 47.4251 0.677991 46.3975C-0.249244 44.4584 1.09808 42.3693 1.66199 40.5578C1.94963 39.3426 0.749899 38.4087 0.700699 37.2385C1.08295 36.2821 0.78396 35.1907 0.288174 34.3206C0.185989 34.1518 -0.0562273 33.8705 0.011896 33.5442C0.117866 33.0229 0.613652 32.6628 0.912638 32.2802C1.55981 31.5676 2.11615 30.675 2.00261 29.7261C1.87772 28.7847 1.25325 27.9408 0.545529 27.2995C0.443344 27.2132 0.57959 27.0332 0.693129 27.1232L0.696914 27.1344Z"
              fill="#1D6362"
            />
            <path
              d="M18.1252 63.9386C16.7817 61.0544 16.7022 57.6863 15.9036 54.7121C15.3397 52.8293 13.4966 51.9029 11.7632 51.0741L9.02695 49.6976C7.2179 48.7525 5.33694 47.9798 3.31595 47.0872C3.20998 47.0459 3.2289 46.8734 3.34622 46.8622C8.36843 46.1758 13.7464 48.5612 16.7287 52.6268C17.671 54.1195 17.5424 56.0098 17.6673 57.6113C17.7581 59.7379 17.7884 61.827 18.3447 63.8636C18.3826 63.9873 18.1858 64.0698 18.129 63.9423L18.1252 63.9386Z"
              fill="#1D6362"
            />
          </svg>