<svg width="383" height="272" viewBox="0 0 383 272" fill="none" xmlns="http://www.w3.org/2000/svg">
<path d="M32.2449 217.843C31.4894 215.777 30.7421 213.636 30.0235 211.48L31.7946 211.01C32.5085 213.152 33.2509 215.279 34.0014 217.331L32.2449 217.843ZM349.07 215.175L347.236 214.973C347.541 212.773 347.83 210.558 348.096 208.389L349.932 208.569C349.665 210.745 349.375 212.968 349.07 215.175ZM27.9837 205.07C27.3369 202.94 26.7099 200.769 26.1195 198.619L27.914 198.227C28.5009 200.364 29.1243 202.521 29.7671 204.639L27.9837 205.07ZM350.689 201.951L348.849 201.796C349.083 199.588 349.299 197.367 349.493 195.194L351.334 195.324C351.141 197.505 350.923 199.735 350.689 201.951ZM24.4313 192.13C23.8977 189.959 23.39 187.764 22.9222 185.606L24.7362 185.292C25.201 187.438 25.7057 189.619 26.236 191.777L24.4313 192.13ZM351.865 188.688L350.021 188.584C350.177 186.377 350.315 184.151 350.428 181.968L352.274 182.045C352.159 184.237 352.022 186.472 351.865 188.688ZM21.598 179.049C21.1871 176.851 20.8068 174.635 20.4674 172.462L22.2972 172.234C22.6342 174.393 23.0121 176.594 23.4202 178.777L21.598 179.049ZM352.556 175.396L350.709 175.348C350.781 173.131 350.831 170.903 350.857 168.725L352.704 168.742C352.678 170.93 352.629 173.169 352.556 175.396ZM19.5401 165.849C19.2646 163.63 19.025 161.397 18.8274 159.214L20.669 159.081C20.8651 161.248 21.103 163.464 21.3765 165.668L19.5401 165.849ZM350.865 162.101C350.843 159.883 350.796 157.655 350.724 155.48L352.571 155.432C352.643 157.618 352.69 159.857 352.712 162.087L350.865 162.101ZM18.3431 152.561C18.2206 150.329 18.1392 148.087 18.1016 145.899L19.949 145.873C19.9864 148.043 20.0669 150.266 20.1885 152.481L18.3431 152.561ZM350.427 148.865C350.3 146.649 350.144 144.427 349.964 142.258L351.806 142.136C351.988 144.317 352.145 146.553 352.272 148.781L350.427 148.865ZM19.9665 139.263L18.1192 139.229C18.1707 136.991 18.2698 134.748 18.4141 132.565L20.2587 132.662C20.1157 134.825 20.0173 137.046 19.9665 139.263ZM349.323 135.665C349.076 133.45 348.796 131.238 348.492 129.09L350.325 128.883C350.631 131.045 350.913 133.272 351.161 135.502L349.323 135.665ZM20.8445 126.078L19.0061 125.914C19.2571 123.683 19.563 121.454 19.9155 119.288L21.744 119.525C21.3954 121.667 21.0927 123.872 20.8445 126.078ZM347.458 122.54C347.073 120.339 346.651 118.146 346.203 116.023L348.019 115.718C348.471 117.858 348.896 120.068 349.283 122.286L347.458 122.54ZM128.941 122.307C126.374 121.946 124.517 120.903 121.945 119.101L123.112 117.823C125.366 119.397 126.993 120.341 129.138 120.667L128.941 122.307ZM135.352 118.383L133.706 117.633C134.552 116.155 135.3 114.103 135.929 111.536L137.734 111.888C137.061 114.632 136.282 116.756 135.352 118.383ZM116.522 114.371C115.05 112.908 113.477 111.224 111.713 109.223L113.165 108.204C114.904 110.176 116.452 111.833 117.897 113.269L116.522 114.371ZM22.9781 113.018L21.1642 112.704C21.6428 110.503 22.1844 108.308 22.7739 106.18L24.5675 106.576C23.9856 108.677 23.4508 110.845 22.9781 113.018ZM344.71 109.549C344.163 107.371 343.573 105.211 342.956 103.131L344.742 102.709C345.365 104.81 345.96 106.99 346.513 109.188L344.71 109.549ZM138.977 105.25L137.144 105.04C137.428 103.071 137.682 100.916 137.922 98.4495L139.762 98.5919C139.521 101.081 139.264 103.259 138.977 105.25ZM107.188 103.91C105.686 102.1 104.128 100.186 102.786 98.5342L104.282 97.5658C105.621 99.2143 107.176 101.124 108.673 102.929L107.188 103.91ZM242.458 103.774C241.019 103.774 239.607 103.391 238.262 102.634L239.247 101.238C241.268 102.377 243.256 102.38 245.403 101.472L246.198 102.96C244.928 103.5 243.67 103.774 242.458 103.774ZM26.533 100.221L24.7661 99.7386C25.5003 97.5957 26.3056 95.4646 27.16 93.4042L28.8928 93.9766C28.0505 96.0074 27.2567 98.1082 26.533 100.221ZM252.24 98.6486L250.882 97.5299C252.283 96.1757 253.785 94.5051 255.473 92.4227L256.97 93.3898C255.238 95.5255 253.691 97.2458 252.24 98.6486ZM233.008 97.5147C231.812 95.8682 230.628 93.9291 229.386 91.587L231.056 90.8814C232.262 93.1568 233.408 95.0332 234.559 96.6175L233.008 97.5147ZM340.914 96.7843C340.17 94.6475 339.376 92.5439 338.554 90.5322L340.29 89.9671C341.122 92.0036 341.926 94.1327 342.679 96.2947L340.914 96.7843ZM98.4074 93.1574C96.717 91.0953 95.3083 89.4023 93.9739 87.8298L95.4468 86.8342C96.7874 88.4142 98.2018 90.1141 99.8985 92.1837L98.4074 93.1574ZM140.318 91.9316L138.474 91.8252C138.614 89.8929 138.757 87.7213 138.91 85.1859L140.755 85.2747C140.602 87.816 140.459 89.9935 140.318 91.9316ZM31.6622 87.8719L29.9719 87.2061C30.9862 85.1557 32.0671 83.1422 33.2155 81.1732L34.8538 81.9356C33.7237 83.8728 32.6604 85.8539 31.6622 87.8719ZM261.203 87.8714L259.659 86.9653C260.972 85.1835 262.328 83.2957 263.701 81.3887L265.255 82.2801C263.879 84.1921 262.522 86.0815 261.203 87.8714ZM226.412 85.4324C225.575 83.5587 224.71 81.5144 223.768 79.1827L225.506 78.6232C226.441 80.9375 227.299 82.965 228.128 84.8217L226.412 85.4324ZM335.836 84.4039C334.843 82.3386 333.792 80.3322 332.713 78.4408L334.359 77.6925C335.456 79.6159 336.524 81.655 337.534 83.7532L335.836 84.4039ZM89.412 82.6038C87.7356 80.7462 86.175 79.0929 84.6412 77.5495L86.0234 76.4551C87.5767 78.0182 89.1557 79.6911 90.8508 81.5692L89.412 82.6038ZM141.14 78.6219L139.294 78.539C139.419 76.3357 139.542 74.1312 139.674 71.8881L141.519 71.9746C141.387 74.2164 141.264 76.4196 141.14 78.6219ZM269.306 76.71L267.765 75.8007C269.309 73.7159 270.689 71.9121 271.986 70.287L273.491 71.2436C272.207 72.8531 270.838 74.6412 269.306 76.71ZM38.5181 76.2445L36.9608 75.357C38.4127 73.3273 39.9098 71.4942 41.4102 69.9088L42.8217 70.973C41.3739 72.5028 39.926 74.2763 38.5181 76.2445ZM221.301 72.8894C220.453 70.6729 219.622 68.4554 218.921 66.5784L220.673 66.0566C221.374 67.9309 222.204 70.1451 223.05 72.3566L221.301 72.8894ZM79.5611 72.774C77.6727 71.1328 75.8158 69.6831 74.0423 68.4649L75.1691 67.1579C76.9992 68.4149 78.9105 69.9069 80.8502 71.5924L79.5611 72.774ZM329.125 72.7035C327.802 70.7751 326.413 68.9514 325 67.2827L326.473 66.2878C327.923 67.999 329.346 69.8678 330.701 71.8417L329.125 72.7035ZM48.004 66.4859L46.8834 65.1746C49.0898 63.6722 51.3863 62.5887 53.7087 61.9544L54.2493 63.5314C52.137 64.1085 50.0358 65.1025 48.004 66.4859ZM277.947 65.9816L276.512 64.9431C278.245 63.0346 279.886 61.3925 281.531 59.9229L282.838 61.0885C281.239 62.5174 279.639 64.118 277.947 65.9816ZM141.933 65.333L140.089 65.235C140.249 62.8377 140.408 60.6609 140.574 58.5798L142.417 58.6974C142.251 60.7719 142.093 62.9425 141.933 65.333ZM67.9337 64.9877C65.6282 63.9636 63.3604 63.31 61.1936 63.0449L61.4443 61.4109C63.8107 61.7004 66.2711 62.4069 68.7569 63.5112L67.9337 64.9877ZM320.247 62.3219C318.468 60.6952 316.626 59.2595 314.773 58.0543L315.86 56.7213C317.797 57.9804 319.718 59.4773 321.569 61.17L320.247 62.3219ZM216.564 60.2676C215.645 57.8137 214.887 55.8131 214.18 53.9711L215.928 53.4363C216.637 55.2824 217.396 57.2868 218.316 59.7445L216.564 60.2676ZM288.368 56.8787L287.309 55.5274C289.581 54.1084 291.876 53.0575 294.131 52.4041L294.701 53.9727C292.621 54.5755 290.49 55.5535 288.368 56.8787ZM308.528 54.8582C306.24 53.9966 303.923 53.4635 301.643 53.2733L301.815 51.6312C304.283 51.8369 306.783 52.4114 309.246 53.3386L308.528 54.8582ZM143.009 52.0761L141.168 51.9302C141.398 49.6162 141.649 47.3815 141.913 45.2881L143.749 45.4724C143.487 47.5533 143.238 49.775 143.009 52.0761ZM211.722 47.6984C210.829 45.474 209.988 43.4406 209.15 41.4824L210.876 40.894C211.718 42.8632 212.564 44.9069 213.461 47.1422L211.722 47.6984ZM144.689 38.8964L142.861 38.6606C143.235 36.3515 143.645 34.1309 144.082 32.0605L145.898 32.3655C145.466 34.413 145.059 36.6104 144.689 38.8964ZM206.405 35.3248C205.412 33.1932 204.411 31.1538 203.43 29.2631L205.107 28.5701C206.098 30.4804 207.109 32.5401 208.111 34.6917L206.405 35.3248ZM147.467 25.9118L145.674 25.512C146.318 23.209 147.029 21.0399 147.785 19.0645L149.534 19.5981C148.794 21.5296 148.098 23.6537 147.467 25.9118ZM200.149 23.3443C198.934 21.3014 197.692 19.3838 196.46 17.6444L198.021 16.7626C199.279 18.5373 200.544 20.4913 201.781 22.5711L200.149 23.3443ZM152.309 13.5559L150.652 12.826C151.865 10.6318 153.21 8.69188 154.651 7.05959L156.102 8.08009C154.741 9.62228 153.465 11.4645 152.309 13.5559ZM192.225 12.2954C190.61 10.489 188.944 8.8886 187.272 7.53917L188.511 6.3159C190.257 7.72509 191.993 9.39091 193.669 11.267L192.225 12.2954ZM161.257 3.8055L160.261 2.41649C162.449 1.16622 164.861 0.353091 167.428 0L167.709 1.62991C165.398 1.94788 163.227 2.6798 161.257 3.8055ZM181.443 3.80454C179.29 2.76895 177.048 2.06086 174.779 1.70014L175.103 0.0764346C177.566 0.467981 179.994 1.23391 182.319 2.35293L181.443 3.80454Z" fill="#DCE6FF"/>
<path d="M0.284257 226.789C0.284257 226.789 -2.39729 237.202 8.71187 239.81C23.9072 243.376 109.821 252.943 88.1527 260.063C75.9208 264.082 97.6772 269.341 157.255 271.35C216.833 273.36 319.064 265.486 284.686 253.836C250.307 242.186 390.375 251.022 381.843 226.789L0.284257 226.789Z" fill="#C3D6F4"/>
<path d="M67.4556 226.757C67.4556 226.757 24.2664 117.966 56.6497 94.8205C78.2948 79.3497 99.4272 118.3 126.811 100.258C151.19 84.1955 135.583 46.6659 159.319 28.572C188.513 6.31775 237.278 116.806 271.537 99.6664C325.427 72.7055 358.372 115.237 320.951 226.955L67.4556 226.757Z" fill="#D4E1FC"/>
<path d="M361.91 180.66C346.578 178.631 347.966 209.118 326.11 209.118C306.128 209.118 295.435 141.004 273.508 154.858C185.353 210.551 253.943 115.779 194.667 113.926C167.864 113.089 150.004 138.599 143.418 183.766C133.871 224.599 111.73 152.622 88.9447 159.315C74.4634 163.568 76.1219 209.118 56.1397 209.118C34.2845 209.118 35.7242 183.482 20.3919 185.51C3.88405 187.694 0.015625 227.442 0.015625 227.442H382.234C382.234 227.442 378.418 182.844 361.91 180.66Z" fill="#EEF7FF"/>
<path d="M347.202 212.641C333.097 211.774 335.398 219.607 315.292 219.607C296.909 219.607 297.414 202.051 285.112 198.321C262.458 191.45 243.781 226.224 234.998 208.772C218.317 162.462 169.665 139.238 147.22 208.772C138.437 226.224 117.898 195.082 97.1056 198.321C84.3072 200.314 85.309 219.607 66.9259 219.607C46.8196 219.607 49.1213 211.774 35.0158 212.641C19.829 213.574 15.293 227.439 15.293 227.439H366.925C366.925 227.439 362.389 213.574 347.202 212.641Z" fill="#D4E1FC"/>
<path d="M248.258 68.3172C248.257 68.314 248.256 68.3109 248.255 68.3077C249.689 68.035 255.326 66.7915 260.725 63.2557C266.95 59.1794 270.509 53.5937 270.536 53.55C270.485 53.5576 263.943 54.5875 257.718 58.6638C252.306 62.2084 248.91 66.8921 248.098 68.0831C248.088 68.0758 248.078 68.0695 248.067 68.0631C249.026 66.7049 252.955 60.7966 254.567 53.0693C256.409 44.236 254.525 36.3711 254.525 36.3711C254.525 36.3711 249.654 42.8275 247.812 51.6608C246.386 58.5004 247.193 64.7587 247.63 67.2352C247.152 65.0952 245.81 60.2278 242.74 55.5402C238.664 49.3156 233.078 45.7566 233.034 45.7291C233.042 45.7801 234.072 52.3228 238.148 58.5473C241.649 63.8931 246.26 67.2705 247.52 68.1354C247.518 68.1375 247.517 68.1397 247.515 68.1418C246.439 67.3495 242.987 64.9862 238.466 63.6937C232.979 62.1248 227.995 62.7275 227.995 62.7275C227.995 62.7275 231.908 65.8737 237.395 67.4424C241.873 68.7229 246.015 68.5569 247.387 68.4526L247.382 68.4796C246.289 68.574 243.587 68.9193 240.775 70.137C237.124 71.718 234.672 74.1702 234.672 74.1702L234.672 74.1701C234.726 74.1685 238.167 74.0472 241.789 72.4787C244.353 71.3687 246.324 69.8298 247.271 69.0112L246.24 73.9546C246.191 74.1914 246.342 74.4232 246.579 74.4725C246.609 74.4788 246.639 74.4817 246.669 74.4817C246.872 74.4817 247.054 74.3398 247.097 74.1334L248.142 69.1206C248.665 70.2238 249.868 72.4799 251.82 74.5707C254.513 77.4563 257.619 78.9427 257.667 78.9655L257.668 78.9659C257.668 78.9659 256.4 75.7378 253.686 72.8294C251.558 70.5505 249.174 69.1442 248.242 68.6423L248.248 68.6158C249.407 69.2344 253.177 71.0852 257.861 71.7105C263.517 72.4658 268.361 71.1456 268.361 71.1456C268.361 71.1456 264.034 68.6009 258.377 67.8457C253.656 67.2157 249.504 68.0301 248.258 68.3172Z" fill="#F9B233"/>
<path d="M126.168 77.3861C129.729 76.0547 132.161 73.759 132.161 73.759C132.161 73.759 128.819 73.6219 125.258 74.9534C122.287 76.0643 120.103 77.8458 119.461 78.4054C119.459 78.4039 119.458 78.4023 119.456 78.4007C120.211 77.7921 123.134 75.2928 125.198 71.5191C127.576 67.1707 127.915 62.7717 127.917 62.7376C127.89 62.7581 124.368 65.4163 121.99 69.7647C119.922 73.5461 119.397 77.364 119.293 78.3184C119.285 78.3171 119.277 78.3166 119.269 78.3161C119.406 77.2176 119.861 72.5129 118.383 67.4665C116.694 61.6982 113.118 57.668 113.118 57.668C113.118 57.668 112.283 62.9899 113.972 68.7582C115.282 73.2289 117.723 76.6538 118.755 77.9692C117.804 76.8636 115.487 74.4221 112.209 72.6293C107.861 70.2511 103.462 69.9127 103.428 69.9101C103.448 69.9378 106.106 73.459 110.455 75.8372C114.189 77.8798 117.958 78.4174 118.971 78.53C118.97 78.5318 118.97 78.5337 118.969 78.5354C118.089 78.4073 115.319 78.1019 112.257 78.7612C108.54 79.5612 105.801 81.4793 105.801 81.4793C105.801 81.4793 109.087 82.1003 112.804 81.3001C115.837 80.6473 118.218 79.25 118.992 78.7581L118.997 78.7759C118.385 79.1736 116.906 80.2238 115.635 81.8227C113.986 83.8973 113.315 86.1077 113.315 86.1077L113.315 86.1073C113.346 86.0895 115.33 84.9387 116.966 82.8804C118.124 81.4239 118.799 79.9012 119.099 79.1228L120.044 82.3508C120.081 82.4779 120.198 82.5605 120.324 82.5605C120.351 82.5605 120.379 82.5567 120.406 82.5488C120.561 82.5035 120.649 82.3416 120.604 82.1869L119.645 78.9136C120.298 79.3978 121.713 80.3459 123.516 80.9619C126.004 81.8124 128.295 81.7112 128.331 81.7094H128.331C128.331 81.7094 126.573 80.2105 124.066 79.3533C122.101 78.6818 120.259 78.6036 119.554 78.6014L119.549 78.5841C120.424 78.5839 123.22 78.4884 126.168 77.3861Z" fill="#F9B233"/>
<path d="M187.915 226.34L189.939 187.428C189.969 186.854 190.458 186.413 191.032 186.443C191.567 186.471 191.987 186.904 192.016 187.428L194.04 226.34C194.128 228.032 192.828 229.474 191.137 229.562C189.445 229.65 188.003 228.35 187.915 226.659C187.91 226.553 187.91 226.444 187.915 226.34Z" fill="#7689D6"/>
<path d="M208.924 102.038C208.924 148.976 190.977 187.027 190.977 187.027C190.977 187.027 173.031 148.976 173.031 102.038C173.031 55.0984 190.977 17.0469 190.977 17.0469C190.977 17.0469 208.924 55.0984 208.924 102.038Z" fill="#7689D6"/>
<path d="M190.975 187.024C190.724 186.93 158.5 174.738 131.131 147.369C103.763 120 91.57 87.7753 91.4766 87.5234C91.7284 87.6169 123.953 99.8096 151.322 127.178C178.691 154.547 190.882 186.772 190.975 187.024Z" fill="#7689D6"/>
<path d="M191.094 187.268C191.094 187.268 166.352 195.631 136.742 193.469C107.133 191.308 83.8672 179.44 83.8672 179.44C83.8672 179.44 108.609 171.077 138.219 173.24C165.151 175.206 186.836 185.202 190.536 186.994C190.904 187.172 191.094 187.268 191.094 187.268Z" fill="#7689D6"/>
<path d="M191.262 187.43C191.262 187.43 181.379 202.524 164.466 214.45C147.687 226.285 130.294 230.556 130.022 230.621L130.02 230.623C130.02 230.623 139.904 215.53 156.815 203.602C170.927 193.651 185.472 189.046 189.902 187.795C190.781 187.546 191.262 187.43 191.262 187.43Z" fill="#7689D6"/>
<path d="M208.923 102.038C208.923 148.976 190.976 187.027 190.976 187.027V17.0469C190.976 17.0469 208.923 55.0984 208.923 102.038Z" fill="#677CC1"/>
<path d="M190.975 187.024L91.4766 87.5234C91.7284 87.6169 123.953 99.8096 151.322 127.178C178.691 154.547 190.882 186.772 190.975 187.024Z" fill="#677CC1"/>
<path d="M190.536 186.994L83.8672 179.44C83.8672 179.44 108.609 171.077 138.219 173.24C165.151 175.206 186.836 185.202 190.536 186.994Z" fill="#677CC1"/>
<path d="M189.902 187.797L130.022 230.623L130.02 230.625C130.02 230.625 139.904 215.532 156.815 203.604C170.927 193.653 185.472 189.048 189.902 187.797Z" fill="#677CC1"/>
<path d="M191.261 187.024C191.513 186.93 223.736 174.738 251.105 147.369C278.474 120 290.666 87.7753 290.76 87.5234C290.508 87.6169 258.283 99.8096 230.914 127.178C203.545 154.547 191.354 186.772 191.261 187.024Z" fill="#677CC1"/>
<path d="M191.144 187.268C191.144 187.268 215.886 195.631 245.495 193.469C275.104 191.308 298.37 179.44 298.37 179.44C298.37 179.44 273.628 171.077 244.019 173.24C217.086 175.206 195.401 185.202 191.701 186.994C191.333 187.172 191.144 187.268 191.144 187.268Z" fill="#677CC1"/>
<path d="M190.976 187.43C190.976 187.43 200.858 202.524 217.771 214.45C234.551 226.285 251.943 230.556 252.215 230.621L252.218 230.623C252.218 230.623 242.334 215.53 225.422 203.602C211.31 193.651 196.766 189.046 192.336 187.795C191.457 187.546 190.976 187.43 190.976 187.43Z" fill="#677CC1"/>
<path d="M191.261 187.024L290.76 87.5234C290.508 87.6169 258.283 99.8096 230.914 127.178C203.545 154.547 191.354 186.772 191.261 187.024Z" fill="#7689D6"/>
<path d="M191.702 186.994L298.371 179.44C298.371 179.44 273.629 171.077 244.02 173.24C217.087 175.206 195.402 185.202 191.702 186.994Z" fill="#7689D6"/>
<path d="M192.335 187.797L252.214 230.623L252.217 230.625C252.217 230.625 242.333 215.532 225.422 203.604C211.31 193.653 196.765 189.048 192.335 187.797Z" fill="#7689D6"/>
<path d="M205.885 219.403C202.164 219.403 198.855 221.294 196.746 224.231C193.134 221.877 187.344 222.322 184.223 225.186C180.643 220.56 174.37 222.896 172.936 228.534C168.96 224.254 162.183 227.869 162.369 233.765H217.273C218.474 226.468 212.946 219.3 205.885 219.403Z" fill="#5970B2"/>
<path d="M65.3718 230.173H32.2051V181.355C32.2051 174.299 37.9256 168.578 44.9823 168.578H52.5946C59.6513 168.578 65.3718 174.299 65.3718 181.355V230.173Z" fill="#23659B"/>
<path d="M48.7884 235.426C57.9471 235.426 65.3718 233.074 65.3718 230.172C65.3718 227.27 57.9471 224.918 48.7884 224.918C39.6297 224.918 32.2051 227.27 32.2051 230.172C32.2051 233.074 39.6297 235.426 48.7884 235.426Z" fill="#23659B"/>
<path d="M58.2708 163.516H39.3037V169.904H58.2708V163.516Z" fill="#23659B"/>
<path d="M34.585 197.832V226.525C34.585 229.426 40.9436 231.779 48.7876 231.779C56.6315 231.779 62.9902 229.426 62.9902 226.525V197.832H34.585Z" fill="#F9B233"/>
<path d="M48.7876 203.086C56.6314 203.086 62.9902 200.734 62.9902 197.832C62.9902 194.93 56.6314 192.578 48.7876 192.578C40.9437 192.578 34.585 194.93 34.585 197.832C34.585 200.734 40.9437 203.086 48.7876 203.086Z" fill="#F39200"/>
<path d="M45.5312 196.655C45.5312 198.967 46.9892 200.841 48.7877 200.841C50.5862 200.841 52.0442 198.967 52.0442 196.655V168.284C52.0442 167.728 45.5312 167.728 45.5312 168.284V196.655Z" fill="#F9B233"/>
<path d="M35.7354 155.137V166.712C35.7354 168.184 41.5795 169.376 48.7886 169.376C55.9977 169.376 61.8418 168.184 61.8418 166.712V155.137H35.7354Z" fill="#3A72AA"/>
<path d="M48.7886 157.801C55.9977 157.801 61.8418 156.608 61.8418 155.137C61.8418 153.665 55.9977 152.473 48.7886 152.473C41.5795 152.473 35.7354 153.665 35.7354 155.137C35.7354 156.608 41.5795 157.801 48.7886 157.801Z" fill="#23659B"/>
<path d="M52.9743 138.019C52.9743 135.706 51.0999 133.832 48.7875 133.832C46.4752 133.832 44.6006 135.706 44.6006 138.019V155.136C44.6006 155.691 46.4752 156.142 48.7875 156.142C51.0999 156.142 52.9743 155.691 52.9743 155.136V138.019Z" fill="#F39200"/>
<path d="M228.457 93.9492H223.441V101.401H215.988V106.418H223.441V113.871H228.457V106.418H235.909V101.401H228.457V93.9492Z" fill="white"/>
<path d="M157.069 85.5742H152.052V93.0266H144.6V98.0433H152.052V105.496H157.069V98.0433H164.521V93.0266H157.069V85.5742Z" fill="white"/>
<path d="M171.25 43.8557H166.996V39.6016H164.132V43.8557H159.878V46.7193H164.132V50.9732H166.996V46.7193H171.25V43.8557Z" fill="white"/>
<path d="M307.329 125.129H303.075V120.875H300.211V125.129H295.957V127.993H300.211V132.247H303.075V127.993H307.329V125.129Z" fill="white"/>
<path d="M83.1314 125.129H78.8775V120.875H76.0139V125.129H71.7598V127.993H76.0139V132.247H78.8775V127.993H83.1314V125.129Z" fill="white"/>
<path d="M311.902 167.867V233.782C311.902 237.092 323.958 239.775 338.83 239.775C353.701 239.775 365.757 237.092 365.757 233.782V167.867H311.902Z" fill="#3A72AA"/>
<path d="M338.83 173.861C353.701 173.861 365.757 171.178 365.757 167.868C365.757 164.558 353.701 161.875 338.83 161.875C323.958 161.875 311.902 164.558 311.902 167.868C311.902 171.178 323.958 173.861 338.83 173.861Z" fill="#23659B"/>
<path d="M318.305 150.461V165.335C318.305 167.858 327.494 169.903 338.83 169.903C350.166 169.903 359.355 167.858 359.355 165.335V150.461H318.305Z" fill="#3A72AA"/>
<path d="M338.83 155.031C350.166 155.031 359.355 152.985 359.355 150.463C359.355 147.94 350.166 145.895 338.83 145.895C327.494 145.895 318.305 147.94 318.305 150.463C318.305 152.985 327.494 155.031 338.83 155.031Z" fill="#23659B"/>
<path d="M352.522 216.781C360.086 209.217 360.086 196.955 352.522 189.391C344.959 181.828 332.696 181.828 325.132 189.391C317.569 196.955 317.569 209.217 325.132 216.781C332.696 224.344 344.959 224.344 352.522 216.781Z" fill="#FCB4B4"/>
<path d="M351.484 203.889H326.178C325.734 203.889 325.374 203.529 325.374 203.085C325.374 202.641 325.734 202.281 326.178 202.281H351.484C351.928 202.281 352.288 202.641 352.288 203.085C352.288 203.529 351.928 203.889 351.484 203.889Z" fill="#F49F9F"/>
<path d="M351.484 197.686H326.178C325.734 197.686 325.374 197.326 325.374 196.882C325.374 196.438 325.734 196.078 326.178 196.078H351.484C351.928 196.078 352.288 196.438 352.288 196.882C352.288 197.326 351.928 197.686 351.484 197.686Z" fill="#F49F9F"/>
<path d="M351.484 210.092H326.178C325.734 210.092 325.374 209.732 325.374 209.288C325.374 208.844 325.734 208.484 326.178 208.484H351.484C351.928 208.484 352.288 208.844 352.288 209.288C352.288 209.732 351.928 210.092 351.484 210.092Z" fill="#F49F9F"/>
<path d="M220.566 191.912C217.507 192.912 216.352 188.211 217.579 187.803C218.374 187.748 220.502 188.789 220.877 189.137C220.877 189.137 220.465 190.183 220.566 191.912Z" fill="#F99370"/>
<path d="M250.566 164.472L236.917 170.027C236.917 170.027 236.083 165.605 233.725 159.831C233.343 158.898 232.923 157.931 232.459 156.94L239.749 147.826C239.749 147.826 242.204 147.518 246.274 154.267C250.343 161.015 250.566 164.472 250.566 164.472Z" fill="#8E4A35"/>
<path d="M245.594 162.166C246.441 164.648 246.829 165.733 246.912 165.96L236.916 170.029C236.916 170.029 236.083 165.606 233.724 159.833L243.208 156.305C243.208 156.305 244.629 159.34 245.594 162.166Z" fill="#682713"/>
<path d="M244.621 169.383C242.829 172.766 241.445 178.444 240.058 182.693C237.499 190.53 228.768 194.292 221.103 192.077C218.774 191.609 219.539 188.667 221.816 189.117C237.083 188.702 232.51 177.345 236.878 167.326C237.404 165.681 238.781 164.038 239.015 163.841C242.36 161.014 247.471 165.044 244.621 169.383Z" fill="#F99370"/>
<path d="M239.013 163.84C239.52 167.448 240.89 177.166 241.395 180.767C239.772 178.874 235.215 178.321 234.117 178.816C234.387 171.22 236.73 165.868 239.013 163.84Z" fill="#EB5648"/>
<path d="M237.441 170.059C236.789 171.538 234.948 176.467 237.109 178.758L238.353 178.416L237.441 170.059Z" fill="#CE3932"/>
<path d="M241.008 178.006L241.395 180.765C239.772 178.871 235.215 178.319 234.117 178.813C234.136 178.351 234.161 177.901 234.194 177.465C234.194 177.465 237.615 176.919 241.008 178.006Z" fill="#CE3932"/>
<path d="M238.434 162.298C238.625 162.988 239.014 163.84 239.014 163.84C240.227 165.16 242.275 163.888 242.895 162.383C242.895 162.383 242.307 161.245 242.103 160.691L238.434 162.298Z" fill="#F99370"/>
<path d="M236.083 148.784C230.777 148.616 230.673 156.977 234.51 159.713L236.083 148.784Z" fill="#8E4A35"/>
<path d="M286.624 229.565L287.973 219.932C287.485 219.695 285.09 219.844 284.246 219.631C283.707 219.591 276.927 217.86 276.22 217.703L275.445 223.234L282.686 223.338C283.544 223.35 284.271 223.971 284.423 224.816C284.851 226.688 284.238 228.67 285.476 230.004C285.898 230.36 286.547 230.112 286.624 229.565Z" fill="#F99370"/>
<path d="M287.089 219.51C287.408 219.595 287.712 219.729 287.974 219.932L286.614 229.645C286.548 230.118 286.035 230.394 285.611 230.175C284.622 229.66 283.29 228.169 283.683 223.659C283.683 223.659 284.349 222.199 284.247 219.631C284.247 219.631 285.793 219.165 287.089 219.51Z" fill="#1D3F70"/>
<path d="M284.05 228.394C283.21 228.392 285.166 226.598 285.664 227.19C285.69 227.297 285.626 227.405 285.519 227.431C284.35 227.746 284.4 228.289 284.05 228.394Z" fill="#D3E9FE"/>
<path d="M283.714 226.963C282.802 226.967 285.136 224.977 285.697 225.651C285.715 225.759 285.641 225.861 285.533 225.879C284.254 226.115 284.019 226.9 283.714 226.963Z" fill="#D3E9FE"/>
<path d="M283.618 225.172C282.657 225.144 285.249 223.253 285.727 223.876C285.749 223.984 285.679 224.088 285.571 224.109C284.262 224.386 283.892 225.117 283.618 225.172Z" fill="#D3E9FE"/>
<path d="M285.597 230.169L287.089 219.512C287.409 219.597 287.713 219.731 287.975 219.934L286.614 229.647C286.548 230.125 286.02 230.401 285.597 230.169Z" fill="#395B96"/>
<path d="M244.139 246.823L253.847 246.504C253.996 245.981 253.441 243.65 253.506 242.781C253.5 242.416 253.55 240.416 253.576 240.051L252.73 234.586L248.45 234.726L249.586 241.878C249.721 242.726 249.234 243.548 248.427 243.843C246.658 244.582 244.615 244.322 243.503 245.754C243.217 246.234 243.581 246.841 244.139 246.823Z" fill="#F99370"/>
<path d="M254.109 245.561C254.08 245.89 254 246.212 253.844 246.505L244.042 246.826C243.565 246.842 243.205 246.384 243.348 245.929C243.686 244.866 244.928 243.299 249.439 242.914C249.439 242.914 250.991 243.322 253.503 242.781C253.503 242.781 254.228 244.224 254.109 245.561Z" fill="#1D3F70"/>
<path d="M246.224 245.488C246.146 245.49 246.071 245.445 246.038 245.37C245.649 244.496 244.993 244.246 244.965 244.235C244.723 244.151 244.859 243.771 245.099 243.861C245.134 243.873 245.94 244.171 246.401 245.209C246.46 245.335 246.362 245.488 246.224 245.488Z" fill="#D3E9FE"/>
<path d="M247.761 245.249C247.677 245.251 247.598 245.199 247.569 245.115C247.219 244.105 246.308 243.654 246.299 243.65C246.066 243.542 246.24 243.177 246.471 243.292C246.514 243.313 247.539 243.814 247.944 244.986C247.99 245.11 247.893 245.248 247.761 245.249Z" fill="#D3E9FE"/>
<path d="M249.51 244.976C249.429 244.978 249.352 244.929 249.321 244.849C248.913 243.79 248.04 243.243 248.031 243.238C247.639 242.279 249.238 243.404 249.691 244.706C249.743 244.831 249.645 244.975 249.51 244.976Z" fill="#D3E9FE"/>
<path d="M243.354 245.911L254.109 245.559C254.08 245.888 254 246.21 253.845 246.503L244.042 246.824C243.559 246.841 243.197 246.368 243.354 245.911Z" fill="#395B96"/>
<path d="M242.243 161.046C240.931 162.434 239.005 162.842 238.649 162.909C237.786 160.411 236.06 157.249 237.559 155.739C238.597 154.69 241.548 159.332 242.243 161.046Z" fill="#E57D61"/>
<path d="M242.785 154.076C243.198 155.863 243.401 157.985 242.528 159.634L242.526 159.635C242.171 160.297 241.634 160.846 240.999 161.263C237.64 163.979 231.011 161.188 232.797 156.71C233.105 155.993 233.239 155.144 233.205 154.437C232.707 146.984 241.42 147.797 242.785 154.076Z" fill="#F99370"/>
<path d="M235.507 159.304L237.249 157.285C238.007 158.507 236.916 159.976 235.507 159.304Z" fill="#F9F8F3"/>
<path d="M235.962 155.648C235.69 155.419 236.056 154.997 236.321 155.234C236.594 155.463 236.228 155.885 235.962 155.648Z" fill="#C16256"/>
<path d="M233.684 156.16C233.412 155.931 233.778 155.509 234.043 155.746C234.315 155.975 233.949 156.397 233.684 156.16Z" fill="#C16256"/>
<path d="M235.535 159.402C235.442 159.432 235.36 159.309 235.429 159.235C235.499 159.232 237.223 156.969 237.317 157.205C237.361 157.242 237.366 157.308 237.328 157.351C237.279 157.382 235.601 159.402 235.535 159.402Z" fill="#C16256"/>
<path d="M282.638 218.77C282.638 218.77 282.697 221.506 282.009 224.131C263.33 222.983 255.544 220.72 253.695 202.662C253.695 202.662 247.591 214.986 254.178 238.024H254.18C254.37 238.7 254.568 239.364 254.779 240.041C254.779 240.041 252.429 242.05 249.109 241.481C244.816 233.733 235.309 215.07 242.626 190.221C247.19 184.702 256.017 181.402 262.06 183.991C267.145 196.269 259.604 214.238 282.638 218.77Z" fill="#FCB4B4"/>
<path d="M249.671 240.034C241.747 221.964 241.818 201.449 246.552 190.656C242.759 204.379 242.815 219.624 249.671 240.034Z" fill="#F49F9F"/>
<path d="M280.26 222.547C255.383 221.839 257.661 206.772 255.872 189.456C255.855 189.084 256.447 189.03 256.467 189.427C258.423 206.355 255.484 221.104 280.27 221.951C280.635 221.959 280.635 222.551 280.26 222.547Z" fill="#F49F9F"/>
<path d="M235.238 158.089C234.783 158.203 234.103 158.143 234.491 157.55C234.865 157.096 234.813 155.957 234.812 155.946C234.803 155.812 235.015 155.8 235.02 155.936C235.022 155.986 235.076 157.165 234.652 157.682C234.603 157.741 234.555 157.82 234.598 157.862C234.719 157.982 235.241 157.958 235.522 157.724C235.565 157.687 235.631 157.693 235.668 157.737C235.763 157.946 235.395 158.026 235.238 158.089Z" fill="#C16256"/>
<path d="M262.061 183.989C262.061 183.989 252.352 190.951 242.258 190.656C242.258 190.656 241.433 190.313 241.302 188.832C241.682 179.009 234.411 180.045 237.05 171.407C237.631 169.521 238.619 165.559 239.015 163.838C239.059 164.092 239.73 167.26 242.897 162.382C253.569 160.483 253.995 178.487 262.061 183.989Z" fill="#EB5648"/>
<path d="M259.852 181.457L259.109 181.976C257.198 179.787 253.349 172.673 249.733 171.311L253.341 170.32C255.263 174.254 257.049 178.893 259.852 181.457Z" fill="#CE3932"/>
<path d="M244.84 162.26C258.745 161.226 271.386 178.021 258.769 188.857C257.878 189.621 257.371 190.342 256.307 189.273C255.747 188.697 256.353 187.949 256.655 187.3C260.701 178.847 256.269 171.573 247.182 170.36C246.916 170.33 244.84 162.26 244.84 162.26Z" fill="#F99370"/>
<path d="M242.787 154.078C243.199 155.866 243.403 157.987 242.53 159.636L242.527 159.637C242.891 158.427 242.518 156.2 242.518 156.2L241.802 155.434C235.212 155.925 233.808 151.044 233.808 151.044C236.358 146.904 242.077 149.937 242.787 154.078Z" fill="#E57D61"/>
<path d="M234.258 150.375C234.258 150.375 235.667 155.179 241.65 154.95L243.1 153.156C243.468 148.835 238.025 144.922 234.258 150.375Z" fill="#8E4A35"/>
<path d="M239.762 146.478C240.341 151.363 234.688 152.119 233.962 147.254C233.383 142.37 239.036 141.613 239.762 146.478Z" fill="#8E4A35"/>
<path d="M244.197 154.492C244.59 156.544 241.996 157.011 241.649 154.951C241.255 152.899 243.85 152.432 244.197 154.492Z" fill="#F99370"/>
<path d="M243.74 155.136C243.679 155.154 243.615 155.109 243.609 155.045C243.552 154.41 243.387 154.023 243.134 153.927C242.638 153.775 242.421 154.338 242.221 154.196C242.09 154.025 242.705 153.586 243.206 153.732C243.471 153.79 243.967 154.562 243.74 155.136Z" fill="#C16256"/>
<path d="M242.789 155.368C242.453 155.543 242.827 153.846 243.534 154.011C243.559 154.063 243.538 154.125 243.486 154.15C242.762 154.535 242.982 155.276 242.789 155.368Z" fill="#C16256"/>
<path d="M243.503 155.798C243.621 156.076 243.182 156.255 243.072 155.974C242.954 155.696 243.393 155.517 243.503 155.798Z" fill="#F4D4BE"/>
<path d="M215.649 194.861C210.879 196.227 208.239 190.026 212.365 187.247C214.262 185.864 217.208 186.113 218.53 188.085C220.266 190.444 218.564 194.152 215.649 194.861ZM214.234 187.827C212.192 188.315 210.886 190.925 212.091 192.553C214.238 195.618 219.551 191.932 217.43 188.848C216.774 187.858 215.378 187.489 214.234 187.827Z" fill="#1D3F70"/>
<path d="M201.601 207.876C201.384 217.952 190.554 211.652 198.491 200.152C198.491 200.152 201.552 204.374 201.601 207.876Z" fill="#5970B2"/>
<path d="M256.489 165.621C255.885 165.643 253.122 169.248 253.95 172.964C251.914 172.019 249.362 170.986 245.755 170.335C242.169 169.911 242.439 164.428 242.895 162.384C246.208 161.774 251.88 161.962 256.489 165.621Z" fill="#EB5648"/>
<path d="M217.284 194.023L212.515 187.149C212.246 186.761 211.713 186.665 211.325 186.934L206.205 190.487C204.478 191.684 206.195 193.549 207.003 194.706L200.605 195.57C200.566 195.235 200.882 194.224 200.284 194.215C200.071 194.204 199.889 194.369 199.879 194.582L199.741 197.389C199.709 197.89 200.497 197.93 200.514 197.427L200.571 196.269L209.521 198.333C210.073 199.12 211.158 199.314 211.949 198.765L217.069 195.212C217.457 194.943 217.553 194.411 217.284 194.023Z" fill="#1D3F70"/>
<path d="M219.8 189.896C219.188 188.967 218.338 187.945 217.184 187.755C216.986 187.741 216.836 187.563 216.864 187.365C217.828 186.292 221.094 188.279 221.816 189.114C222.434 189.837 220.275 190.722 219.8 189.896Z" fill="#F99370"/>
<path d="M218.118 191.223C216.912 191.467 216.777 189.894 218.033 190.378L218.011 190.382C218.666 190.26 218.734 191.124 218.118 191.223Z" fill="#F99370"/>
<path d="M217.745 190.481C216.302 190.482 216.826 188.847 217.757 189.601C217.741 189.586 217.817 189.622 217.839 189.618C217.843 189.619 217.869 189.62 217.848 189.619C218.521 189.631 218.335 190.506 217.745 190.481Z" fill="#F99370"/>
<path d="M217.329 189.716L216.879 189.582C216.257 189.372 216.769 188.573 217.282 188.763L217.732 188.898C218.355 189.107 217.842 189.907 217.329 189.716Z" fill="#F99370"/>
<path d="M217.073 188.998L216.623 188.863C216.001 188.654 216.514 187.854 217.026 188.045L217.477 188.179C218.099 188.389 217.586 189.188 217.073 188.998Z" fill="#F99370"/>
<path d="M256.565 165.639C256.565 165.639 253.465 167.731 253.963 173.052C253.963 173.052 253.572 172.773 252.916 172.491C252.916 172.491 251.731 167.268 255.585 164.953C255.585 164.953 256.267 165.402 256.565 165.639Z" fill="#CE3932"/>
<path d="M244.344 162.188C243.684 164.137 239.666 169.217 238.156 164.77C238.667 164.117 239.016 163.84 239.016 163.84C239.06 164.094 239.731 167.262 242.898 162.384C242.993 162.366 243.495 162.26 244.344 162.188Z" fill="#CE3932"/>
<path d="M282.638 218.769C282.638 218.769 282.698 221.505 282.01 224.13C282.01 224.13 281.168 224.089 279.807 223.979C280.615 221.867 280.54 218.262 280.54 218.262C281.209 218.439 281.908 218.609 282.638 218.769Z" fill="#F49F9F"/>
<path d="M254.179 238.022H254.177C247.59 214.984 253.694 202.66 253.694 202.66C247.616 206.009 248.786 226.43 253.197 238.751C251.051 239.978 248.118 239.768 248.118 239.768C248.727 240.882 249.108 241.479 249.108 241.479C252.429 242.048 254.778 240.039 254.778 240.039C254.566 239.358 254.366 238.686 254.179 238.022Z" fill="#F49F9F"/>
<path d="M252.964 188.266C253.169 188.761 254.178 188.194 254.646 188.337C254.177 189.011 253.509 189.554 253.509 189.56C252.617 190.048 251.7 190.488 250.762 190.886C249.893 192.13 253.361 190.538 253.769 190.444C253.772 190.449 253.775 190.453 253.778 190.457C252.971 191.152 252.124 191.805 251.228 192.381C250.565 193.864 254.039 191.274 254.388 191.065C254.39 191.066 254.393 191.068 254.395 191.069C253.746 191.851 253.001 192.555 252.192 193.171C251.722 194.703 254.945 191.835 255.249 191.505C255.253 191.506 255.256 191.507 255.26 191.509C254.84 192.198 254.332 192.833 253.796 193.437C253.597 194.873 255.789 192.251 256.071 191.934C256.512 191.391 257.573 190.841 258.769 188.857C259.076 188.347 257.535 187.461 256.964 187.336C256.321 187.195 255.358 187.474 255.1 187.555C254.517 187.651 253.126 187.623 252.964 188.266Z" fill="#F99370"/>
<path d="M241.665 173.206C241.665 173.206 240.684 171.283 242.569 169.281C242.569 169.281 243.658 171.367 241.665 173.206Z" fill="#CE3932"/>
<path d="M241.666 173.206C241.666 173.206 241.316 171.368 239.409 171.456C239.409 171.456 239.686 173.235 241.666 173.206Z" fill="#CE3932"/>
<path d="M241.667 173.205C241.667 173.205 243.131 171.304 245.134 171.258C245.134 171.258 244.514 173.145 241.667 173.205Z" fill="#CE3932"/>
<path d="M241.666 173.204C241.666 173.204 240.29 172.907 239.504 174.118C239.504 174.118 240.706 174.544 241.666 173.204Z" fill="#CE3932"/>
<path d="M241.667 173.203C241.667 173.203 240.507 173.99 241.321 175.621C241.321 175.621 242.641 174.343 241.667 173.203Z" fill="#CE3932"/>
<path d="M241.667 173.206C241.667 173.206 242.335 174.704 244.691 174.309C244.691 174.309 243.758 172.632 241.667 173.206Z" fill="#CE3932"/>
<path d="M236.745 154.558C236.73 154.558 236.716 154.556 236.701 154.551C235.821 154.256 235.347 154.534 235.343 154.537C235.278 154.576 235.194 154.557 235.154 154.493C235.115 154.429 235.134 154.345 235.197 154.305C235.22 154.29 235.775 153.952 236.788 154.291C236.86 154.315 236.899 154.393 236.875 154.464C236.855 154.522 236.802 154.558 236.745 154.558Z" fill="#C16256"/>
<path d="M233.188 155.274C233.16 155.274 233.132 155.266 233.108 155.249C233.047 155.205 233.032 155.12 233.076 155.058C233.091 155.037 233.46 154.53 234.251 154.496C234.322 154.496 234.391 154.552 234.394 154.627C234.397 154.703 234.338 154.767 234.263 154.77C233.611 154.797 233.312 155.2 233.299 155.217C233.272 155.254 233.23 155.274 233.188 155.274Z" fill="#C16256"/>
<path d="M102.247 246.597L102.071 246.506C102.071 246.629 101.919 247.056 101.796 247.056L96.5972 247.163C96.4742 247.163 96.3984 246.931 96.3984 246.808L95.9551 246.681C95.9551 245.903 96.0191 245.621 96.363 245.018C97.6269 243.338 96.1181 235.826 96.1617 233.863C95.85 233.326 101.636 233.747 101.717 233.621C101.847 233.621 101.949 233.732 101.939 233.861L101.258 242.446C100.953 244.076 102.203 245.061 102.247 246.597Z" fill="#F99370"/>
<path d="M127.959 247.347H117.604C116.7 247.31 116.707 246.388 116.874 245.673C117.444 243.096 116.436 237.179 116.249 234.529C116.2 234.044 116.58 233.622 117.068 233.622C124.709 233.544 122.216 232.932 121.624 241.175C121.173 244.054 124.607 244.603 126.565 244.921C127.854 245.014 130.01 246.774 127.959 247.347Z" fill="#F99370"/>
<path d="M116.481 246.273C116.509 246.781 116.76 247.36 117.348 247.347H128.09C130.623 246.408 126.827 243.046 121.868 243.066C118.342 244.034 116.361 241.285 116.481 246.273Z" fill="#103663"/>
<path d="M96.7801 247.345H101.371C103.608 247.04 101.996 242.747 99.0761 243.058C96.1478 242.687 94.5444 247.044 96.7801 247.345Z" fill="#103663"/>
<path d="M125.529 245.893C125.619 245.893 125.704 245.84 125.74 245.751C126.153 244.732 126.897 244.42 126.929 244.408C127.509 243.492 125.822 244.144 125.317 245.579C125.254 245.725 125.371 245.896 125.529 245.893Z" fill="#D3E9FE"/>
<path d="M123.756 245.678C123.854 245.678 123.944 245.615 123.974 245.517C124.339 244.338 125.366 243.792 125.376 243.787C125.903 242.723 123.942 243.862 123.538 245.382C123.491 245.526 123.606 245.68 123.756 245.678Z" fill="#D3E9FE"/>
<path d="M121.737 245.428C121.831 245.428 121.92 245.369 121.952 245.275C122.379 244.05 123.363 243.383 123.373 243.376C123.955 241.804 120.741 245.008 121.737 245.428Z" fill="#D3E9FE"/>
<path d="M97.4281 244.422C98.7034 243.648 100.66 244.345 100.667 244.401C101.999 244.114 98.8497 242.99 97.3126 243.996C97.1124 244.105 97.2044 244.43 97.4281 244.422Z" fill="#D3E9FE"/>
<path d="M128.843 246.27H116.482C116.528 246.647 116.632 247.013 116.821 247.344H128.091C128.646 247.345 129.04 246.788 128.843 246.27Z" fill="#0F2E54"/>
<path d="M96.7788 247.344H101.37C101.954 247.345 102.424 246.852 102.388 246.27H95.7607C95.7252 246.852 96.1948 247.345 96.7788 247.344Z" fill="#0F2E54"/>
<path d="M122.432 142.298C122.432 142.298 123.557 139.143 120.881 137.609L118.85 138.66L122.432 142.298Z" fill="#C92828"/>
<path d="M120.57 167.758C130.678 175.474 143.332 173.75 150.504 168.383L150.878 164.715C134.337 165.997 130.241 156.955 119.672 153.25L120.819 156.674C120.819 156.674 120.457 167.511 120.57 167.758Z" fill="#1D3F70"/>
<path d="M122.965 240.473C119.069 241.934 114.75 240.82 114.75 240.82C114.804 240.293 114.854 239.759 114.898 239.216C116.37 220.983 111.444 195.287 110.938 193.416C110.938 193.415 110.937 193.413 110.937 193.413C110.913 193.323 110.899 193.29 110.898 193.318C107.664 214.448 104.46 231.97 102.957 240.15C99.1183 241.945 95.2232 239.376 95.2232 239.376C95.1997 238.638 95.1801 237.913 95.1631 237.193C94.2774 222.996 96.3033 179.432 103.637 170.926C112.145 175.146 123.842 175.805 123.842 175.805C125.798 212.941 125.703 230.691 122.965 240.473Z" fill="#3A72AA"/>
<path d="M118.661 152.872C119.146 150.308 120.324 145.695 118.395 144.558C117.037 143.814 115.123 144.755 115.292 146.456C115.437 146.395 115.075 151.101 114.569 152.339C110.57 152.839 121.386 158.524 118.661 152.872Z" fill="#F99370"/>
<path d="M115.289 146.236C115.287 146.308 115.288 146.382 115.293 146.454C115.397 146.407 115.23 149.009 114.92 150.865C116.53 151.952 118.534 151.931 118.902 151.918C119.195 149.187 120.241 145.809 118.395 144.556C117.132 143.744 115.3 144.712 115.289 146.236Z" fill="#E57D61"/>
<path d="M120.365 239.737C125.175 217.301 120.282 187.849 119.547 187.633C119.171 187.809 123.445 217.407 120.365 239.737Z" fill="#23659B"/>
<path d="M99.2354 240.035C103.123 215.405 107.466 186.785 106.922 186.359C106.358 186.439 101.943 215.598 99.2354 240.035Z" fill="#23659B"/>
<path d="M112.838 144.065C112.826 145.932 113.094 148.083 114.326 149.527H114.329C114.379 149.586 114.429 149.64 114.483 149.695C114.483 149.697 114.486 149.697 114.486 149.699C116.35 151.468 119.306 151.781 121.669 150.423H121.671C123.571 149.165 124.44 147.187 123.843 145.45C123.435 144.416 122.533 143.416 122.433 142.298C121.824 135.519 112.88 136.841 112.838 144.065Z" fill="#F99370"/>
<path d="M119.961 144.113C120.18 143.825 119.723 143.487 119.512 143.781C119.293 144.069 119.75 144.407 119.961 144.113Z" fill="#C16256"/>
<path d="M122.339 144.113C122.558 143.825 122.101 143.487 121.89 143.781C121.671 144.069 122.128 144.407 122.339 144.113Z" fill="#C16256"/>
<path d="M112.838 144.064C112.826 145.931 113.094 148.083 114.326 149.527H114.329C114.379 149.585 114.429 149.64 114.483 149.694C113.021 146.766 113.414 146.162 114.073 144.125C116.228 142.592 116.152 140.499 118.17 140.508C120.187 140.514 121.834 140.24 121.834 140.24C119.572 135.422 112.809 138.21 112.838 144.064Z" fill="#E57D61"/>
<path d="M121.292 146.378C121.751 146.366 122.341 146.154 121.844 145.675C121.372 145.306 121.172 144.164 121.169 144.153C120.699 143.715 121.177 145.429 121.714 145.841C122.08 146.16 121.189 146.258 120.86 146.076C120.383 146.152 121.087 146.438 121.292 146.378Z" fill="#C16256"/>
<path d="M99.4354 183.571C105.099 187.856 118.533 188.971 124.188 186.924C126.094 186.117 126.361 179.696 126.14 173.391C125.801 164.986 123.752 158.91 119.873 153.294C119.826 153.274 119.088 152.947 118.666 152.875C118.684 153.643 118.509 155.862 114.572 152.34C114.554 152.355 113.396 152.199 113.035 152.355C112.657 152.641 108.395 155.414 108.286 155.865C107.965 157.214 106.526 160.551 104.951 164.441C103.132 168.989 101.266 173.65 100.465 177.91C100.153 179.681 98.3123 181.902 99.4354 183.571Z" fill="#103663"/>
<path d="M116.475 238.992L114.898 239.218C116.369 220.985 111.444 195.289 110.938 193.418C111.245 194.172 113.254 199.321 114.749 208.89C116.372 219.282 116.878 233.724 116.475 238.992Z" fill="#23659B"/>
<path d="M112.516 141.548C113.15 136.207 116.454 136.368 116.454 136.368V136.369C119.296 132.583 125.634 134.48 122.995 138.736C121.498 141.356 117.669 138.434 115.409 141.792C114.5 143.142 113.938 143.974 112.363 144.666C112.363 144.666 112.156 142.994 112.516 141.548Z" fill="#C92828"/>
<path d="M111.529 144.789C111.593 146.914 114.273 146.803 114.161 144.68C114.097 142.555 111.417 142.666 111.529 144.789Z" fill="#F99370"/>
<path d="M112.129 145.329C112.193 145.329 112.243 145.273 112.234 145.21C112.151 144.566 112.228 144.145 112.459 143.993C112.918 143.733 113.258 144.244 113.425 144.059C113.498 143.842 112.827 143.57 112.343 143.816C112.096 143.927 111.765 144.825 112.129 145.329Z" fill="#C16256"/>
<path d="M121.225 147.896C121.604 147.933 121.947 147.739 121.601 147.646C121.558 147.657 120.525 147.922 119.444 146.919C119.402 146.879 119.334 146.882 119.295 146.925C119.614 147.729 120.916 147.891 121.225 147.896Z" fill="#C16256"/>
<path d="M113.092 152.379C114.388 154.589 120.11 158.033 119.874 153.293C119.825 153.27 119.091 152.945 118.665 152.872C118.674 152.996 118.899 156.257 114.57 152.336C114.575 152.369 113.416 152.16 113.092 152.379Z" fill="#1D3F70"/>
<path d="M114.75 240.82C114.75 240.82 119.069 241.934 122.965 240.473L123.473 238.425C123.473 238.425 118.601 240.117 114.978 238.246C114.908 239.109 114.832 239.968 114.75 240.82Z" fill="#23659B"/>
<path d="M95.1621 237.191C95.1794 237.911 95.199 238.638 95.2228 239.375C95.2228 239.375 99.117 241.944 102.957 240.149C102.957 240.149 103.083 239.477 103.308 238.245C103.308 238.245 99.1734 239.479 95.1621 237.191Z" fill="#23659B"/>
<path d="M113.092 152.379C113.092 152.379 101.648 153.25 98.616 166.567C95.9985 178.063 102.107 184.523 113.93 187.736C113.93 187.736 114.3 186.275 115.89 185.808C115.89 185.808 110.23 181.439 108.805 176.212C107.38 170.985 108.707 164.88 110.788 160.481C110.788 160.481 113.9 155.67 113.092 152.379Z" fill="#1D3F70"/>
<path d="M157.429 158.961L102.076 199.41L104.546 202.79L159.899 162.341L157.429 158.961Z" fill="#EB5648"/>
<path d="M131.049 178.238L102.076 199.41L104.546 202.79L133.519 181.618L131.049 178.238Z" fill="#CE3932"/>
<path opacity="0.1" d="M196.898 163.778C206.725 153.951 206.725 138.018 196.898 128.19C187.071 118.363 171.137 118.363 161.31 128.19C151.482 138.018 151.482 153.951 161.31 163.778C171.137 173.606 187.071 173.606 196.898 163.778Z" fill="white"/>
<path opacity="0.2" d="M204.772 155.134C203.889 157.625 202.64 160.001 201.038 162.172L199.543 160.677L198.039 159.173L165.92 127.054L162.919 124.053C163.015 123.983 163.111 123.913 163.208 123.843C165.33 122.319 167.6 121.144 169.947 120.309L171.597 121.96L173.294 123.657H173.295L201.425 151.787L203.127 153.488L204.772 155.134Z" fill="white"/>
<path opacity="0.2" d="M198.529 165.113C197.459 166.199 196.282 167.209 195.002 168.127C192.816 169.697 190.473 170.896 188.05 171.737L186.392 170.078L184.684 168.371L156.717 140.403L155.017 138.704L153.351 137.037C154.719 133.072 156.976 129.501 159.976 126.559L162.937 129.52L195.567 162.152L197.05 163.634L198.529 165.113Z" fill="white"/>
<path d="M201.248 130.089C187.353 110.364 155.721 118.067 152.208 141.57C148.279 161.309 169.598 178.89 188.051 171.737C204.801 166.268 212.018 144.569 201.248 130.089ZM201.426 151.787C199.485 159.771 192.653 166.512 184.685 168.372C162.248 174.042 146.226 145.887 162.938 129.521C179.44 113.252 207.34 129.413 201.426 151.787Z" fill="#CE3932"/>
<path d="M152.877 168.116C153.941 168.975 154.882 167.493 153.395 167.327L153.414 167.341C152.831 166.886 152.321 167.702 152.877 168.116Z" fill="#F99370"/>
<path d="M153.626 167.577C155.005 168.32 155.402 166.454 154.065 166.703C154.095 166.705 153.938 166.672 153.965 166.675C153.296 166.342 153.03 167.3 153.626 167.577Z" fill="#F99370"/>
<path d="M154.428 167.038L154.94 167.137C155.661 167.249 155.565 166.198 154.962 166.123L154.449 166.024C153.728 165.912 153.824 166.963 154.428 167.038Z" fill="#F99370"/>
<path d="M155.05 166.46L155.563 166.559C156.284 166.671 156.187 165.62 155.584 165.544L155.071 165.446C154.35 165.334 154.446 166.385 155.05 166.46Z" fill="#F99370"/>
<path d="M120.058 186.501L119.052 187.226C119.056 187.233 119.061 187.24 119.065 187.247C119.499 187.91 120.085 188.459 120.771 188.856C121.435 189.241 122.086 189.621 122.817 189.918C123.776 191.354 119.851 189.617 119.363 189.516C119.359 189.525 119.359 189.524 119.355 189.533C120.255 190.322 121.204 191.058 122.213 191.703C122.86 193.42 119.072 190.531 118.62 190.273C118.617 190.277 118.617 190.277 118.615 190.281C119.327 191.176 120.155 191.978 121.064 192.674C121.563 194.471 117.957 191.224 117.607 190.828C117.603 190.83 117.598 190.831 117.594 190.833C118.046 191.626 118.604 192.358 119.198 193.052C119.435 194.82 116.725 191.517 116.455 191.12C116.169 190.962 114.767 189.64 113.93 187.737C113.655 187.114 115.332 185.461 115.89 185.809C116.308 186.071 117.663 186.071 117.957 186.156C118.642 186.253 119.35 186.234 120.058 186.501Z" fill="#F99370"/>
<path d="M118.726 143.39C118.754 143.39 118.782 143.379 118.803 143.357C119.366 142.744 120.19 142.783 120.198 142.785C120.25 142.783 120.305 142.744 120.309 142.686C120.312 142.629 120.268 142.579 120.211 142.575C120.174 142.574 119.281 142.527 118.649 143.215C118.61 143.258 118.612 143.324 118.655 143.363C118.675 143.381 118.7 143.39 118.726 143.39Z" fill="#C16256"/>
<path d="M122.397 143.089C122.428 143.089 122.458 143.076 122.479 143.049C122.515 143.004 122.507 142.938 122.462 142.903C122.439 142.885 121.897 142.464 121.219 142.578C121.162 142.588 121.124 142.642 121.133 142.699C121.143 142.756 121.198 142.795 121.254 142.785C121.839 142.686 122.327 143.063 122.332 143.067C122.351 143.082 122.374 143.089 122.397 143.089Z" fill="#C16256"/>
<path d="M117.785 159.67C119.568 159.67 120.57 159.335 120.632 159.314L120.41 158.668C120.389 158.675 118.243 159.381 114.618 158.656L114.483 159.326C115.771 159.583 116.879 159.67 117.785 159.67Z" fill="#1D3F70"/>
<path d="M117.493 162.296C119.723 162.296 121.053 161.778 121.129 161.747L120.875 161.113C120.851 161.123 118.41 162.065 114.616 161.328L114.485 161.998C115.612 162.217 116.621 162.296 117.493 162.296Z" fill="#1D3F70"/>
<path d="M117.921 164.9C119.919 164.9 121.286 164.337 121.371 164.301L121.106 163.672C121.076 163.684 118.147 164.881 114.663 163.664L114.438 164.309C115.706 164.752 116.897 164.9 117.921 164.9Z" fill="#1D3F70"/>
<path d="M113.148 145.492C113.085 145.492 113.032 145.443 113.028 145.38C113.027 145.37 112.954 144.464 112.256 144.169C112.195 144.143 112.166 144.072 112.192 144.011C112.218 143.95 112.289 143.921 112.35 143.947C113.185 144.301 113.265 145.32 113.268 145.363C113.273 145.429 113.223 145.487 113.157 145.491C113.154 145.492 113.151 145.492 113.148 145.492Z" fill="#C16256"/>
<path d="M41.2979 232.812V238.549C41.2979 243.178 33.3048 246.931 23.4446 246.931C18.4715 246.931 13.973 245.976 10.7356 244.436C7.55459 242.922 5.59082 240.843 5.59082 238.549V232.812H41.2979Z" fill="#F49F9F"/>
<path d="M41.298 232.814C41.1307 242.844 7.73601 244.973 5.661 233.562C5.58473 233.143 5.56327 232.738 5.59283 232.346C6.08798 225.704 21.1547 222.952 31.5738 225.341C36.7293 226.523 40.7468 228.964 41.298 232.814Z" fill="#FCB4B4"/>
<path d="M31.6253 225.362C10.0673 225.098 5.66094 233.562 5.66094 233.562C5.61693 233.146 5.59452 232.74 5.59277 232.346C6.08793 225.704 21.1547 222.952 31.5737 225.341C31.591 225.348 31.6083 225.355 31.6253 225.362Z" fill="#F9C0C0"/>
<path d="M31.6246 225.363L15.9604 241.042C15.554 240.961 15.2466 240.725 14.8564 240.631L30.1932 225.047C30.5995 225.128 31.2348 225.269 31.6246 225.363Z" fill="#F49F9F"/>
<path d="M41.2987 232.812V238.549C41.2987 243.178 33.3055 246.931 23.4454 246.931C18.4722 246.931 13.9737 245.976 10.7363 244.436C10.7363 244.436 41.2987 248.086 41.2987 232.812Z" fill="#E58F8F"/>
<path d="M67.8808 239.064C67.8806 239.063 64.8617 226.78 64.875 226.781L77.8536 223.599C83.1704 222.105 87.8963 228.4 84.8835 232.994C84.0444 234.378 82.6774 235.442 80.981 235.858C80.9802 235.858 67.8792 239.078 67.8808 239.064Z" fill="#EB5648"/>
<path d="M47.1211 237.598C46.3202 234.219 48.3941 230.823 51.7702 229.995L64.8636 226.785C64.8789 226.783 67.8833 239.069 67.8764 239.073C62.0925 239.762 49.514 246.709 47.1211 237.598Z" fill="white"/>
<path d="M377.216 232.973V238.709C377.216 243.338 369.223 247.091 359.363 247.091C354.389 247.091 349.891 246.136 346.654 244.596C343.473 243.082 341.509 241.004 341.509 238.709V232.973H377.216Z" fill="#F39200"/>
<path d="M377.216 232.974C377.049 243.004 343.654 245.133 341.579 233.722C341.503 233.303 341.481 232.898 341.511 232.506C342.006 225.864 357.073 223.112 367.492 225.501C372.647 226.684 376.665 229.124 377.216 232.974Z" fill="#F9B233"/>
<path d="M367.543 225.522C345.985 225.258 341.579 233.722 341.579 233.722C341.535 233.306 341.512 232.901 341.511 232.506C342.006 225.864 357.073 223.112 367.492 225.501C367.509 225.508 367.526 225.515 367.543 225.522Z" fill="#FFC76C"/>
<path d="M367.543 225.523L351.878 241.202C351.472 241.121 351.165 240.885 350.774 240.791L366.111 225.207C366.517 225.288 367.153 225.429 367.543 225.523Z" fill="#F39200"/>
<path d="M377.217 232.973V238.709C377.217 243.338 369.223 247.091 359.363 247.091C354.39 247.091 349.892 246.136 346.654 244.596C346.654 244.596 377.217 248.246 377.217 232.973Z" fill="#E58200"/>
<path d="M308.46 240.24C308.461 240.238 309.92 227.674 309.932 227.68L323.205 229.229C328.708 229.686 330.939 237.234 326.512 240.487C325.243 241.491 323.59 242.011 321.855 241.809C321.855 241.808 308.454 240.252 308.46 240.24Z" fill="#EB5648"/>
<path d="M289.519 231.615C289.948 228.169 293.077 225.71 296.53 226.114L309.92 227.677C309.935 227.68 308.462 240.241 308.453 240.243C302.793 238.87 288.58 240.988 289.519 231.615Z" fill="white"/>
</svg>
